<svg xmlns="http://www.w3.org/2000/svg" xmlns:xlink="http://www.w3.org/1999/xlink" viewBox="0 0 600 350"><defs><style>.cls-1,.cls-2{fill:#fff;}.cls-1,.cls-10,.cls-11,.cls-13{stroke:#fff;}.cls-1,.cls-10,.cls-11,.cls-13,.cls-9{stroke-miterlimit:10;}.cls-1,.cls-9{stroke-width:4px;}.cls-3{font-size:60px;font-family:EuclidCircularA-SemiBold, Euclid Circular A;font-weight:600;}.cls-10,.cls-3,.cls-7{fill:#231f20;}.cls-4{letter-spacing:-0.01em;}.cls-5{letter-spacing:0em;}.cls-6{font-size:12px;}.cls-7,.cls-8{font-size:72px;font-family:Choplin-Bold, Choplin;font-weight:700;}.cls-13,.cls-14,.cls-8{fill:#ddd721;}.cls-9{stroke:#231f20;}.cls-10,.cls-11{stroke-width:5px;}.cls-11{fill:none;}.cls-12{mask:url(#mask);}.cls-13{stroke-width:2px;}.cls-15{filter:url(#luminosity-invert-noclip);}</style><filter id="luminosity-invert-noclip" x="251.52" y="104.47" width="61.82" height="79.49" filterUnits="userSpaceOnUse" color-interpolation-filters="sRGB"><feColorMatrix values="-1 0 0 0 1 0 -1 0 0 1 0 0 -1 0 1 0 0 0 1 0" result="invert"/><feFlood flood-color="#fff" result="bg"/><feBlend in="invert" in2="bg"/></filter><mask id="mask" x="250.45" y="105.08" width="61.82" height="79.49" maskUnits="userSpaceOnUse"><g class="cls-15"><g transform="translate(-1.07 0.61)"><rect class="cls-1" x="253.52" y="124.14" width="57.82" height="57.82"/></g></g></mask></defs><g id="Layer_2" data-name="Layer 2"><rect class="cls-2" width="600" height="350"/></g><g id="Layer_1" data-name="Layer 1"><text x="-1.07" y="0.61"/><text class="cls-3" transform="translate(187.14 248.02)">a<tspan class="cls-4" x="37.02" y="0">t</tspan><tspan class="cls-5" x="62.22" y="0">chan- </tspan><tspan class="cls-6" x="243.6" y="0"> </tspan></text><text class="cls-7" transform="translate(414.77 252.22)">X</text><text class="cls-8" transform="translate(125.77 252.22)">K</text><rect class="cls-9" x="286.2" y="100.95" width="57.82" height="55.76"/><rect class="cls-9" x="253.76" y="126.44" width="57.82" height="55.76"/><polygon class="cls-9" points="345.01 157.13 315.58 179.31 315.58 123.55 345.01 101.37 345.01 157.13"/><polygon class="cls-9" points="314.58 123.55 256.76 123.55 283.58 100.95 341.4 100.95 314.58 123.55"/><line class="cls-10" x1="284.58" y1="82.29" x2="284.58" y2="124.58"/><line class="cls-11" x1="312.95" y1="124.58" x2="312.95" y2="191.74"/><line class="cls-11" x1="249.17" y1="124.58" x2="311.79" y2="124.58"/><line class="cls-11" x1="310.71" y1="125.61" x2="348.69" y2="95.59"/><g class="cls-12"><polygon class="cls-13" points="290.67 119.78 282.64 124.89 282.3 134.41 274.96 128.35 265.8 130.96 269.29 122.11 263.98 114.21 273.48 114.79 279.35 107.3 281.73 116.51 290.67 119.78"/></g><polygon class="cls-13" points="316.45 107.56 310.04 110.89 309.37 118.08 303.97 112.99 296.81 114.35 299.88 107.87 296.13 101.53 303.43 102.61 308.27 97.33 309.7 104.48 316.45 107.56"/><polygon class="cls-14" points="304.87 78.25 299.16 81.73 298.8 88.41 293.72 84.06 287.26 85.77 289.83 79.6 286.2 73.98 292.86 74.52 297.08 69.33 298.63 75.84 304.87 78.25"/><polygon class="cls-13" points="336.42 90.2 330.2 92.66 328.71 99.17 324.44 94.02 317.78 94.61 321.37 88.96 318.75 82.81 325.23 84.47 330.27 80.08 330.69 86.76 336.42 90.2"/><polygon class="cls-14" points="278.65 97.33 273.06 100.09 272.17 106.25 267.82 101.79 261.68 102.84 264.58 97.33 261.68 91.81 267.82 92.87 272.17 88.41 273.06 94.57 278.65 97.33"/><polygon class="cls-10" points="305.87 146.15 241.67 146.15 249.17 124.97 313.37 124.97 305.87 146.15"/><polygon class="cls-10" points="358.21 115.38 322.58 143.82 312.07 125.56 347.7 97.12 358.21 115.38"/></g></svg>