<svg xmlns="http://www.w3.org/2000/svg" xmlns:xlink="http://www.w3.org/1999/xlink" viewBox="0 0 600 350"><defs><style>.cls-1,.cls-15,.cls-3,.cls-7,.cls-9{fill:#fff;}.cls-1{stroke:#fff;}.cls-1,.cls-10,.cls-11,.cls-13,.cls-15,.cls-9{stroke-miterlimit:10;}.cls-1,.cls-9{stroke-width:4px;}.cls-10,.cls-2{fill:#231f20;}.cls-3{font-size:60px;font-family:EuclidCircularA-SemiBold, Euclid Circular A;font-weight:600;}.cls-4{letter-spacing:-0.01em;}.cls-5{letter-spacing:0em;}.cls-6{font-size:12px;}.cls-7,.cls-8{font-size:72px;font-family:Choplin-Bold, Choplin;font-weight:700;}.cls-13,.cls-14,.cls-8{fill:#ddd721;}.cls-10,.cls-11,.cls-15,.cls-9{stroke:#231f20;}.cls-10,.cls-11,.cls-15{stroke-width:5px;}.cls-11{fill:none;}.cls-12{mask:url(#mask);}.cls-13{stroke:#000;stroke-width:2px;}.cls-16{filter:url(#luminosity-invert-noclip);}</style><filter id="luminosity-invert-noclip" x="251.52" y="104.47" width="61.82" height="79.49" filterUnits="userSpaceOnUse" color-interpolation-filters="sRGB"><feColorMatrix values="-1 0 0 0 1 0 -1 0 0 1 0 0 -1 0 1 0 0 0 1 0" result="invert"/><feFlood flood-color="#fff" result="bg"/><feBlend in="invert" in2="bg"/></filter><mask id="mask" x="251.37" y="103.8" width="61.82" height="79.49" maskUnits="userSpaceOnUse"><g class="cls-16"><g transform="translate(-0.15 -0.67)"><rect class="cls-1" x="253.52" y="124.14" width="57.82" height="57.82"/></g></g></mask></defs><g id="Layer_2" data-name="Layer 2"><rect class="cls-2" width="600" height="350"/></g><g id="Layer_1" data-name="Layer 1"><text x="-0.15" y="-0.67"/><text class="cls-3" transform="translate(188.06 246.08)">a<tspan class="cls-4" x="37.02" y="0">t</tspan><tspan class="cls-5" x="62.22" y="0">chan- </tspan><tspan class="cls-6" x="243.6" y="0"> </tspan></text><text class="cls-7" transform="translate(415.69 250.93)">X</text><text class="cls-8" transform="translate(126.69 250.93)">K</text><rect class="cls-9" x="287.11" y="99.67" width="57.82" height="55.76"/><rect class="cls-1" x="254.68" y="125.16" width="57.82" height="55.76"/><polygon class="cls-1" points="345.93 155.84 316.5 178.02 316.5 122.26 345.93 100.08 345.93 155.84"/><polygon class="cls-1" points="315.5 122.26 257.68 122.26 284.5 99.67 342.32 99.67 315.5 122.26"/><line class="cls-10" x1="285.5" y1="81" x2="285.5" y2="123.29"/><line class="cls-11" x1="313.87" y1="123.29" x2="313.87" y2="190.46"/><line class="cls-11" x1="250.09" y1="123.29" x2="312.7" y2="123.29"/><line class="cls-11" x1="311.63" y1="124.32" x2="349.61" y2="94.3"/><g class="cls-12"><polygon class="cls-13" points="291.59 118.49 283.56 123.6 283.22 133.12 275.87 127.06 266.72 129.68 270.21 120.82 264.89 112.92 274.4 113.51 280.26 106.01 282.65 115.23 291.59 118.49"/></g><polygon class="cls-13" points="317.37 106.28 310.96 109.61 310.29 116.8 304.89 111.7 297.73 113.06 300.8 106.59 297.05 100.24 304.34 101.33 309.19 96.04 310.62 103.19 317.37 106.28"/><polygon class="cls-14" points="305.79 76.96 300.08 80.45 299.72 87.12 294.64 82.77 288.17 84.49 290.74 78.31 287.11 72.7 293.78 73.23 298 68.04 299.55 74.55 305.79 76.96"/><polygon class="cls-13" points="337.34 88.91 331.12 91.37 329.62 97.89 325.36 92.73 318.7 93.32 322.28 87.68 319.67 81.52 326.14 83.19 331.19 78.79 331.61 85.47 337.34 88.91"/><polygon class="cls-14" points="279.57 96.05 273.98 98.8 273.08 104.96 268.74 100.5 262.6 101.56 265.5 96.04 262.6 90.53 268.74 91.58 273.09 87.12 273.98 93.29 279.57 96.05"/><polygon class="cls-15" points="306.78 144.86 242.59 144.86 250.09 123.69 314.28 123.69 306.78 144.86"/><polygon class="cls-15" points="359.13 114.1 323.5 142.53 312.98 124.27 348.61 95.83 359.13 114.1"/></g></svg>